<?xml version="1.0" encoding="UTF-8" standalone="no"?>
<!-- Created with Inkscape (http://www.inkscape.org/) -->

<svg
   width="105.30794mm"
   height="15.382571mm"
   viewBox="0 0 105.30794 15.382571"
   version="1.1"
   id="svg8"
   inkscape:version="1.3 (0e150ed6c4, 2023-07-21)"
   sodipodi:docname="LogoAntecnicaTracciato.svg"
   xmlns:inkscape="http://www.inkscape.org/namespaces/inkscape"
   xmlns:sodipodi="http://sodipodi.sourceforge.net/DTD/sodipodi-0.dtd"
   xmlns="http://www.w3.org/2000/svg"
   xmlns:svg="http://www.w3.org/2000/svg"
   xmlns:rdf="http://www.w3.org/1999/02/22-rdf-syntax-ns#"
   xmlns:cc="http://creativecommons.org/ns#"
   xmlns:dc="http://purl.org/dc/elements/1.1/">
  <defs
     id="defs2" />
  <sodipodi:namedview
     id="base"
     pagecolor="#ffffff"
     bordercolor="#666666"
     borderopacity="1.0"
     inkscape:pageopacity="0.0"
     inkscape:pageshadow="2"
     inkscape:zoom="0.7"
     inkscape:cx="70.714286"
     inkscape:cy="159.28571"
     inkscape:document-units="mm"
     inkscape:current-layer="g219"
     showgrid="false"
     fit-margin-top="0"
     fit-margin-left="0"
     fit-margin-right="0"
     fit-margin-bottom="0"
     inkscape:window-width="1920"
     inkscape:window-height="1094"
     inkscape:window-x="-11"
     inkscape:window-y="-11"
     inkscape:window-maximized="1"
     inkscape:pagecheckerboard="0"
     inkscape:showpageshadow="2"
     inkscape:deskcolor="#d1d1d1" />
  <metadata
     id="metadata5">
    <rdf:RDF>
      <cc:Work
         rdf:about="">
        <dc:format>image/svg+xml</dc:format>
        <dc:type
           rdf:resource="http://purl.org/dc/dcmitype/StillImage" />
      </cc:Work>
    </rdf:RDF>
  </metadata>
  <g
     inkscape:label="Livello 1"
     inkscape:groupmode="layer"
     id="layer1"
     transform="translate(-69.810318,-138.11824)">
    <g
       transform="translate(48.124318,-19.464042)"
       id="layer1-3"
       inkscape:label="Livello 1">
      <g
         transform="matrix(0.35277772,0,0,0.35277772,-33.036572,143.51106)"
         id="g897"
         style="font-size:12px;overflow:visible;color-interpolation-filters:sRGB;fill:none;fill-rule:evenodd;stroke-linecap:square;stroke-miterlimit:3">
        <g
           transform="matrix(1.1957722,0,0,1.1957722,-54.274482,9.7913497)"
           id="g219">
          <g
             aria-label="A"
             transform="matrix(0.42087256,0,0,0.42087256,173.68979,54.930923)"
             style="font-style:normal;font-variant:normal;font-weight:400;font-size:69.1875px;line-height:125%;font-family:'Voyager Light';text-align:start;letter-spacing:0px;word-spacing:0px;text-anchor:start;fill:#666666;fill-opacity:1;stroke:none"
             id="text126">
            <path
               d="m 54.1203,-34.796448 q 0,-5.641754 -3.986389,-9.59436 -3.952606,-3.986389 -9.59436,-3.986389 H 16.959045 q -5.641754,0 -9.5943599,3.986389 -3.9863892,3.952606 -3.9863892,9.59436 v 31.8573306 q 0,1.2161865 0.8783569,2.06076047 Q 5.1012268,0 6.3174133,0 7.5335999,0 8.4119568,-0.87835693 9.2903137,-1.7229309 9.2903137,-2.9391174 V -34.796448 q 0,-3.175598 2.2296753,-5.439056 2.263458,-2.229675 5.439056,-2.229675 h 23.580506 q 3.175598,0 5.439056,2.229675 2.229675,2.263458 2.229675,5.439056 v 31.8573306 q 0,1.2161865 0.878357,2.06076047 Q 49.931213,0 51.181183,0 52.397369,0 53.241943,-0.87835693 54.1203,-1.7229309 54.1203,-2.9391174 Z m -13.580749,18.276581 q 1.216186,0 2.094543,-0.878357 0.878357,-0.844574 0.878357,-2.06076 0,-1.24997 -0.878357,-2.094544 -0.878357,-0.878357 -2.094543,-0.878357 H 16.959045 q -1.216186,0 -2.094543,0.878357 -0.878357,0.844574 -0.878357,2.094544 0,1.216186 0.878357,2.06076 0.878357,0.878357 2.094543,0.878357 z"
               style="font-style:normal;font-variant:normal;font-weight:400;font-size:69.1875px;font-family:'Voyager Light';fill:#666666"
               id="path73" />
          </g>
          <g
             aria-label="n"
             transform="matrix(0.42087256,0,0,0.42087256,201.72275,54.930923)"
             style="font-style:normal;font-variant:normal;font-weight:400;font-size:69.1875px;line-height:125%;font-family:'Voyager Light';text-align:start;letter-spacing:0px;word-spacing:0px;text-anchor:start;fill:#666666;fill-opacity:1;stroke:none"
             id="text132">
            <path
               d="M 6.3174133,0 Q 7.5335999,0 8.4119568,-0.87835693 9.2903137,-1.7229309 9.2903137,-2.9391174 V -38.377441 L 47.329926,-0.84457397 Q 48.1745,0 49.390686,0 q 0.608093,0 1.148621,-0.23648071 1.824279,-0.7432251 1.824279,-2.70263669 V -45.43808 q 0,-1.216186 -0.878357,-2.094543 -0.878356,-0.844574 -2.094543,-0.844574 -1.216186,0 -2.094543,0.844574 -0.844574,0.878357 -0.844574,2.094543 V -9.9997559 L 8.4119568,-47.532623 q -1.4188843,-1.385102 -3.2093811,-0.608094 -1.8242798,0.743226 -1.8242798,2.702637 v 42.4989626 q 0,1.2161865 0.8783569,2.06076047 Q 5.1012268,0 6.3174133,0 Z"
               style="font-style:normal;font-variant:normal;font-weight:400;font-size:69.1875px;font-family:'Voyager Light';fill:#666666"
               id="path70" />
          </g>
          <g
             aria-label="t"
             transform="matrix(0.42087256,0,0,0.42087256,229.05487,54.930923)"
             style="font-style:normal;font-variant:normal;font-weight:400;font-size:69.1875px;line-height:125%;font-family:'Voyager Light';text-align:start;letter-spacing:0px;word-spacing:0px;text-anchor:start;fill:#666666;fill-opacity:1;stroke:none"
             id="text138">
            <path
               d="m 6.3174133,-48.377197 q -1.2161865,0 -2.0607605,0.844574 -0.8783569,0.878357 -0.8783569,2.094543 0,1.216187 0.8783569,2.094544 0.844574,0.878357 2.0607605,0.878357 H 25.810181 v 39.5260616 q 0,1.2161865 0.844574,2.06076047 Q 27.533112,0 28.749298,0 29.965485,0 30.843842,-0.87835693 31.688416,-1.7229309 31.688416,-2.9391174 V -42.465179 h 19.492767 q 1.216186,0 2.06076,-0.878357 0.878357,-0.878357 0.878357,-2.094544 0,-1.216186 -0.878357,-2.094543 -0.844574,-0.844574 -2.06076,-0.844574 z"
               style="font-style:normal;font-variant:normal;font-weight:400;font-size:69.1875px;font-family:'Voyager Light';fill:#666666"
               id="path67" />
          </g>
          <g
             aria-label="e"
             transform="matrix(0.42087256,0,0,0.42087256,257.08783,54.930923)"
             style="font-style:normal;font-variant:normal;font-weight:400;font-size:69.1875px;line-height:125%;font-family:'Voyager Light';text-align:start;letter-spacing:0px;word-spacing:0px;text-anchor:start;fill:#666666;fill-opacity:1;stroke:none"
             id="text144">
            <path
               d="m 49.998779,0 q 1.216187,0 2.060761,-0.87835693 0.878357,-0.84457397 0.878357,-2.06076047 0,-1.2161866 -0.878357,-2.0945435 -0.844574,-0.8783569 -2.060761,-0.8783569 h -31.85733 q -3.682343,0 -6.28363,-2.5675049 -2.5675053,-2.6012883 -2.5675053,-6.2836303 v -6.486328 H 42.904358 q 1.216186,0 2.094543,-0.844574 0.844574,-0.878357 0.844574,-2.094544 0,-1.216186 -0.844574,-2.094543 -0.878357,-0.844574 -2.094543,-0.844574 H 9.2903137 v -6.486328 q 0,-3.682343 2.5675053,-6.283631 2.601287,-2.567504 6.28363,-2.567504 h 31.85733 q 1.216187,0 2.060761,-0.878357 0.878357,-0.878357 0.878357,-2.094544 0,-1.216186 -0.878357,-2.094543 -0.844574,-0.844574 -2.060761,-0.844574 h -31.85733 q -6.114716,0 -10.4389344,4.324218 -4.3242187,4.324219 -4.3242187,10.438935 v 18.850891 q 0,6.1147155 4.3242187,10.4389343 Q 12.026733,0 18.141449,0 Z"
               style="font-style:normal;font-variant:normal;font-weight:400;font-size:69.1875px;font-family:'Voyager Light';fill:#666666"
               id="path64" />
          </g>
          <g
             aria-label="c"
             transform="matrix(0.42087256,0,0,0.42087256,284.63017,54.930923)"
             style="font-style:normal;font-variant:normal;font-weight:400;font-size:69.1875px;line-height:125%;font-family:'Voyager Light';text-align:start;letter-spacing:0px;word-spacing:0px;text-anchor:start;fill:#666666;fill-opacity:1;stroke:none"
             id="text150">
            <path
               d="m 49.998779,0 q 1.216187,0 2.060761,-0.87835693 0.878357,-0.84457397 0.878357,-2.06076047 0,-1.2161866 -0.878357,-2.0945435 -0.844574,-0.8783569 -2.060761,-0.8783569 h -31.85733 q -3.682343,0 -6.28363,-2.5675049 -2.5675053,-2.6012883 -2.5675053,-6.2836303 v -18.850891 q 0,-3.682343 2.5675053,-6.283631 2.601287,-2.567504 6.28363,-2.567504 h 31.85733 q 1.216187,0 2.060761,-0.878357 0.878357,-0.878357 0.878357,-2.094544 0,-1.216186 -0.878357,-2.094543 -0.844574,-0.844574 -2.060761,-0.844574 h -31.85733 q -6.114716,0 -10.4389344,4.324218 -4.3242187,4.324219 -4.3242187,10.438935 v 18.850891 q 0,6.1147155 4.3242187,10.4389343 Q 12.026733,0 18.141449,0 Z"
               style="font-style:normal;font-variant:normal;font-weight:400;font-size:69.1875px;font-family:'Voyager Light';fill:#666666"
               id="path61" />
          </g>
          <g
             aria-label="n"
             transform="matrix(0.42087256,0,0,0.42087256,312.17257,54.930923)"
             style="font-style:normal;font-variant:normal;font-weight:400;font-size:69.1875px;line-height:125%;font-family:'Voyager Light';text-align:start;letter-spacing:0px;word-spacing:0px;text-anchor:start;fill:#666666;fill-opacity:1;stroke:none"
             id="text156">
            <path
               d="M 6.3174133,0 Q 7.5335999,0 8.4119568,-0.87835693 9.2903137,-1.7229309 9.2903137,-2.9391174 V -38.377441 L 47.329926,-0.84457397 Q 48.1745,0 49.390686,0 q 0.608093,0 1.148621,-0.23648071 1.824279,-0.7432251 1.824279,-2.70263669 V -45.43808 q 0,-1.216186 -0.878357,-2.094543 -0.878356,-0.844574 -2.094543,-0.844574 -1.216186,0 -2.094543,0.844574 -0.844574,0.878357 -0.844574,2.094543 V -9.9997559 L 8.4119568,-47.532623 q -1.4188843,-1.385102 -3.2093811,-0.608094 -1.8242798,0.743226 -1.8242798,2.702637 v 42.4989626 q 0,1.2161865 0.8783569,2.06076047 Q 5.1012268,0 6.3174133,0 Z"
               style="font-style:normal;font-variant:normal;font-weight:400;font-size:69.1875px;font-family:'Voyager Light';fill:#666666"
               id="path58" />
          </g>
          <g
             aria-label="i"
             style="font-style:normal;font-variant:normal;font-weight:400;font-size:69.1875px;line-height:125%;font-family:'Voyager Light';text-align:start;letter-spacing:0px;word-spacing:0px;text-anchor:start;fill:#666666;fill-opacity:1;stroke:none"
             id="text162"
             transform="matrix(0.42087256,0,0,0.42087256,173.69818,25.134683)">
            <path
               d="m 400.70932,70.796349 q 1.21619,0 2.09454,-0.878357 0.87836,-0.844574 0.87836,-2.060761 V 25.358269 q 0,-1.216187 -0.87836,-2.094544 -0.87835,-0.844574 -2.09454,-0.844574 -1.21619,0 -2.06076,0.844574 -0.87836,0.878357 -0.87836,2.094544 v 42.498962 q 0,1.216187 0.87836,2.060761 0.84457,0.878357 2.06076,0.878357 z"
               style="font-style:normal;font-variant:normal;font-weight:400;font-size:69.1875px;font-family:'Voyager Light';fill:#666666"
               id="path55" />
          </g>
          <g
             aria-label="c"
             transform="matrix(0.42087256,0,0,0.42087256,348.68546,54.930923)"
             style="font-style:normal;font-variant:normal;font-weight:400;font-size:69.1875px;line-height:125%;font-family:'Voyager Light';text-align:start;letter-spacing:0px;word-spacing:0px;text-anchor:start;fill:#666666;fill-opacity:1;stroke:none"
             id="text168">
            <path
               d="m 49.998779,0 q 1.216187,0 2.060761,-0.87835693 0.878357,-0.84457397 0.878357,-2.06076047 0,-1.2161866 -0.878357,-2.0945435 -0.844574,-0.8783569 -2.060761,-0.8783569 h -31.85733 q -3.682343,0 -6.28363,-2.5675049 -2.5675053,-2.6012883 -2.5675053,-6.2836303 v -18.850891 q 0,-3.682343 2.5675053,-6.283631 2.601287,-2.567504 6.28363,-2.567504 h 31.85733 q 1.216187,0 2.060761,-0.878357 0.878357,-0.878357 0.878357,-2.094544 0,-1.216186 -0.878357,-2.094543 -0.844574,-0.844574 -2.060761,-0.844574 h -31.85733 q -6.114716,0 -10.4389344,4.324218 -4.3242187,4.324219 -4.3242187,10.438935 v 18.850891 q 0,6.1147155 4.3242187,10.4389343 Q 12.026733,0 18.141449,0 Z"
               style="font-style:normal;font-variant:normal;font-weight:400;font-size:69.1875px;font-family:'Voyager Light';fill:#666666"
               id="path52" />
          </g>
          <path
             inkscape:connector-curvature="0"
             style="fill:#66ccff;fill-opacity:1;fill-rule:evenodd;stroke:none;stroke-width:0.420872"
             d="m 409.00678,26.8503 2.42204,0.252297 c 7.60254,1.547418 13.32126,8.275327 13.32126,16.331996 0,8.07349 -5.71872,14.801399 -13.32126,16.348817 l -2.42204,0.235477 0.40367,-0.201837 c 5.24777,-3.548971 8.71264,-9.55363 8.71264,-16.382457 0,-6.812006 -3.46487,-12.816665 -8.71264,-16.365636 z"
             id="path170" />
          <path
             inkscape:connector-curvature="0"
             style="fill:#66ccff;fill-opacity:1;fill-rule:evenodd;stroke:none;stroke-width:0.420872"
             d="m 370.99409,43.400954 c 0,-10.058223 8.14078,-18.232631 18.16536,-18.232631 10.0414,0 18.16535,8.174408 18.16535,18.232631 0,10.075043 -8.12395,18.232631 -18.16535,18.232631 -10.02458,0 -18.16536,-8.157588 -18.16536,-18.232631 z"
             id="path172" />
          <g
             aria-label="A"
             transform="matrix(0.42087256,0,0,0.42087256,377.20902,54.545481)"
             style="font-style:normal;font-variant:normal;font-weight:400;font-size:69.1875px;line-height:125%;font-family:'Voyager Light';text-align:start;letter-spacing:0px;word-spacing:0px;text-anchor:start;fill:#000000;fill-opacity:1;stroke:none"
             id="text178">
            <path
               d="m 54.1203,-34.796448 q 0,-5.641754 -3.986389,-9.59436 -3.952606,-3.986389 -9.59436,-3.986389 H 16.959045 q -5.641754,0 -9.5943599,3.986389 -3.9863892,3.952606 -3.9863892,9.59436 v 31.8573306 q 0,1.2161865 0.8783569,2.06076047 Q 5.1012268,0 6.3174133,0 7.5335999,0 8.4119568,-0.87835693 9.2903137,-1.7229309 9.2903137,-2.9391174 V -34.796448 q 0,-3.175598 2.2296753,-5.439056 2.263458,-2.229675 5.439056,-2.229675 h 23.580506 q 3.175598,0 5.439056,2.229675 2.229675,2.263458 2.229675,5.439056 v 31.8573306 q 0,1.2161865 0.878357,2.06076047 Q 49.931213,0 51.181183,0 52.397369,0 53.241943,-0.87835693 54.1203,-1.7229309 54.1203,-2.9391174 Z m -13.580749,18.276581 q 1.216186,0 2.094543,-0.878357 0.878357,-0.844574 0.878357,-2.06076 0,-1.24997 -0.878357,-2.094544 -0.878357,-0.878357 -2.094543,-0.878357 H 16.959045 q -1.216186,0 -2.094543,0.878357 -0.878357,0.844574 -0.878357,2.094544 0,1.216186 0.878357,2.06076 0.878357,0.878357 2.094543,0.878357 z"
               style="font-style:normal;font-variant:normal;font-weight:400;font-size:69.1875px;font-family:'Voyager Light';fill:#ffffff"
               id="path49" />
          </g>
          <path
             inkscape:connector-curvature="0"
             style="fill:#66ccff;fill-opacity:1;fill-rule:evenodd;stroke:none;stroke-width:0.420872"
             d="m 400.32778,26.8503 2.42204,0.252297 c 7.5689,1.547418 13.25398,8.275327 13.25398,16.331996 0,8.07349 -5.68508,14.801399 -13.25398,16.348817 l -2.42204,0.235477 0.40367,-0.201837 c 5.23094,-3.548971 8.66218,-9.55363 8.66218,-16.382457 0,-6.812006 -3.43124,-12.816665 -8.66218,-16.365636 z"
             id="path180" />
        </g>
      </g>
    </g>
  </g>
  <style
     id="style815"
     type="text/css"><![CDATA[
		.st1 {fill:#66ccff;stroke:#ffffff;stroke-linecap:round;stroke-linejoin:round;stroke-width:6}
		.st2 {fill:none;stroke:none;stroke-linecap:round;stroke-linejoin:round;stroke-width:0.75}
		.st3 {fill:#7f7f7f;font-family:Voyager Light;font-size:4.99999em}
		.st4 {font-size:0.3em}
		.st5 {fill:#ffffff;font-size:1em}
		.st6 {fill:none;fill-rule:evenodd;font-size:12px;overflow:visible;stroke-linecap:square;stroke-miterlimit:3}
	]]></style>
</svg>
